
<svg width="96" height="37" viewBox="0 0 96 37" fill="none" xmlns="http://www.w3.org/2000/svg">
<path fill-rule="evenodd" clip-rule="evenodd" d="M15.1118 27.5437C11.8268 28.7939 8.17316 28.6438 5.00181 27.1284L5.00083 27.1274C1.53142 25.4975 0.156456 22.0862 0.571801 18.4573C0.597391 18.23 0.635776 18.0056 0.680066 17.7812H5.24886C5.16263 18.4728 5.13367 19.1704 5.16224 19.8667C5.04987 21.9112 6.48245 23.7173 8.49878 24.0733C10.381 24.5998 12.3926 24.3955 14.1305 23.5015C15.9632 22.5064 16.6817 18.8254 14.039 17.4613C12.5175 16.7907 10.9382 16.2597 9.32061 15.8747C9.15395 15.8229 8.98761 15.7701 8.82161 15.7163C8.06613 15.5142 7.33053 15.2441 6.62382 14.9092C4.5956 13.9699 3.23249 12.0088 3.05895 9.78037C2.48416 5.27457 5.24689 2.45279 8.44563 1.32191C11.6963 0.0988013 15.304 0.245822 18.4444 1.72938C21.8804 3.32777 23.2406 6.67218 22.8291 10.2302C22.8075 10.4162 22.778 10.6012 22.7435 10.7843H18.2161C18.2915 10.1419 18.3169 9.49462 18.2919 8.84831C18.3963 6.83484 16.9765 5.06221 14.9888 4.72439C13.1258 4.20798 11.1369 4.40814 9.41411 5.2854C7.60116 6.26077 6.88956 9.86994 9.50564 11.2085C11.0122 11.8663 12.5749 12.3871 14.1748 12.7646C15.2916 13.0854 16.376 13.5098 17.4139 14.0322C18.7908 14.7722 19.805 16.0432 20.2209 17.5499C20.3832 17.9918 20.4945 18.4508 20.5526 18.9179C21.1412 22.7472 18.8211 26.4255 15.1118 27.5437ZM83.6962 36.2002C82.7947 36.2001 81.9002 36.0432 81.0525 35.7366C79.8154 35.3106 78.8708 34.2977 78.5319 33.0339C78.0975 31.5015 78.3723 29.8551 79.2809 28.5468C79.874 27.8091 80.5943 27.1834 81.4078 26.6994C80.4617 26.2016 79.6414 25.4948 79.0093 24.6325C77.7743 26.2304 76.0661 27.3971 74.1285 27.9661C73.2337 28.2031 72.313 28.3284 71.3874 28.3391C69.1219 28.387 66.9772 27.3203 65.6484 25.4849C65.5568 25.3668 65.4781 25.3097 65.4082 25.3097C65.3383 25.3097 65.2645 25.3884 65.2015 25.4711C65.1765 25.5054 65.1496 25.5383 65.1208 25.5695C63.9147 26.8704 62.3398 27.7715 60.6071 28.1521C60.0252 28.2802 59.4314 28.3462 58.8355 28.349C58.1086 28.3496 57.3856 28.2428 56.6899 28.0321C54.7227 27.42 53.2543 25.7714 52.8731 23.7467C52.4752 22.0384 52.3457 20.2785 52.4892 18.5303C52.6756 14.4831 53.3771 10.4762 54.5768 6.60639C54.7323 6.10345 54.939 5.93318 55.3957 5.93318H55.4941C55.9498 5.95484 56.4271 5.96566 56.9537 5.96566C57.436 5.96566 57.9586 5.9568 58.5993 5.93712H58.6643C58.8611 5.93712 58.9782 5.9696 59.0343 6.04342C59.0904 6.11723 59.0934 6.25798 59.0265 6.50305C58.7789 7.40507 58.5469 8.32867 58.3229 9.22097L58.3218 9.22543C58.2086 9.67817 58.0905 10.1467 57.9724 10.6033L57.9615 10.6555C57.9035 10.8198 57.8923 10.997 57.9291 11.1673H59.246H59.2528H60.5678C61.3916 11.1673 62.0599 11.1614 62.6721 11.1496H62.7173C62.8708 11.1295 63.0257 11.1729 63.1465 11.2697C63.2417 11.4059 63.2772 11.5751 63.2449 11.7382C63.2074 12.4693 63.2074 13.2019 63.2449 13.933C63.2699 14.0736 63.2365 14.2182 63.1524 14.3336C63.0371 14.4247 62.8893 14.4642 62.7439 14.4428H62.7163C62.5917 14.4428 62.4636 14.4415 62.328 14.4401H62.3278H62.3277C62.1753 14.4386 62.0134 14.4369 61.8364 14.4369H61.0146H60.8867H59.9172C59.2282 14.4369 58.6643 14.4281 58.1564 14.4094H58.0196C57.4291 14.4094 57.2322 14.6062 57.1771 15.2666C57.164 15.4116 57.1505 15.557 57.1368 15.7026V15.7194C56.9009 17.6357 56.841 19.5696 56.9576 21.4968C56.9744 22.2512 57.2141 22.9837 57.6466 23.6021C58.0449 24.0763 58.6445 24.3337 59.2627 24.2959C59.7365 24.2867 60.2066 24.2108 60.6593 24.0706C61.9143 23.6397 63.0448 22.9085 63.9525 21.9407C64.1025 21.7836 64.1556 21.5576 64.0913 21.3501C64.0913 21.3311 64.0882 21.3128 64.0852 21.2948C64.0834 21.2839 64.0816 21.2732 64.0805 21.2625C63.536 16.7843 64.097 12.2409 65.7143 8.02959C66.4337 5.94685 67.8035 4.15052 69.6217 2.90569C70.6533 2.28903 71.8275 1.95121 73.0291 1.9254C75.1015 2.00102 76.8102 3.57473 77.0556 5.63398C77.4665 8.40665 77.0837 11.239 75.9513 13.8031C74.5372 17.1366 72.1828 19.9862 69.1758 22.0037C68.8077 22.2576 68.7615 22.4436 68.9711 22.8324C69.5522 23.9673 70.7415 24.6594 72.0153 24.604C72.1374 24.604 72.2643 24.5991 72.3913 24.5892C74.3627 24.4001 76.1911 23.4773 77.5142 22.0037C77.6831 21.8599 77.7589 21.6346 77.7111 21.4181C77.466 19.9527 77.4276 18.4602 77.5969 16.9841C77.7418 15.1534 78.1053 13.3467 78.6796 11.6023L78.6796 11.6023C78.7514 11.3887 78.7908 11.2716 79.1225 11.2716H79.1412C79.5476 11.2785 79.9935 11.2815 80.5023 11.2815H80.5026C80.9533 11.2815 81.4158 11.2815 81.8625 11.2766C82.3094 11.2716 82.7946 11.2716 83.2651 11.2716C83.2476 11.3294 83.2228 11.3846 83.1913 11.436C83.172 11.4668 83.1564 11.4999 83.145 11.5344C82.1626 14.3434 81.8 17.3317 82.082 20.2941C82.1228 21.8297 82.9346 23.2414 84.2414 24.0489C84.9072 24.4163 85.662 24.5911 86.4215 24.5538C86.779 24.5538 87.1462 24.5307 87.502 24.5082L87.513 24.5075H87.5209C87.7846 24.4918 87.7768 24.3324 87.7689 24.1778V24.0715C87.9123 20.9925 87.6281 17.9084 86.9244 14.9074C86.6986 13.9296 86.4018 13.0402 86.0872 12.0974L86.0809 12.0787L86.0801 12.0762L86.08 12.076C85.9918 11.8111 85.9035 11.5463 85.8152 11.2746H89.5198C90.1999 11.2746 90.385 11.3917 90.5602 11.933C91.3762 14.5078 91.8598 17.1764 91.9991 19.8738C92.038 20.5764 92.0289 21.2839 92.0191 22.0323V22.0326V22.0327L92.0188 22.0578C92.0188 22.2343 92.0164 22.4135 92.014 22.5957V22.5961V22.5966C92.0115 22.7849 92.009 22.9765 92.009 23.1719C93.2087 22.5204 94.1615 21.92 95.5 21.0381V24.2871C94.4659 25.0514 93.3774 25.7393 92.2432 26.3451C91.9611 26.4545 91.7639 26.7125 91.7324 27.0134C91.4884 29.3755 90.6209 31.6303 89.2187 33.5467C87.8976 35.2505 85.8519 36.2335 83.6962 36.2002ZM87.4109 27.8465L87.0861 27.9263L86.8657 27.9794L86.8401 27.9853L86.7726 28.0016L86.7725 28.0016C86.4273 28.0851 86.099 28.1645 85.7811 28.257C85.4015 28.3628 85.0307 28.4977 84.6718 28.6605C83.8372 28.9618 83.1259 29.5311 82.6492 30.2795C82.268 30.9718 82.3177 31.8215 82.7772 32.4645C83.1024 32.759 83.5308 32.9132 83.9691 32.8937C84.2391 32.8956 84.5068 32.8437 84.7565 32.7411C85.2444 32.5306 85.6625 32.1859 85.9622 31.747C86.7178 30.5654 87.2117 29.2358 87.4109 27.8475V27.8465ZM71.2726 6.48581C71.5264 6.18444 71.886 5.99177 72.2775 5.94744C72.3952 5.94814 72.5117 5.97084 72.621 6.01437C73.1427 6.2181 73.2017 6.73581 73.2175 7.24859C73.2574 8.75353 73.0407 10.2543 72.5767 11.6865C71.7622 14.2327 70.2442 16.4966 68.1979 18.2168C68.255 16.4807 68.4194 14.7497 68.69 13.0339C68.9597 11.338 69.459 9.68671 70.1742 8.12554C70.4383 7.51711 70.8105 6.96156 71.2726 6.48581ZM30.2442 28.3354C30.0277 28.3354 29.8033 28.3294 29.5779 28.3167C28.2467 28.2726 26.9456 27.9087 25.7847 27.2557C24.6313 26.5588 23.6982 25.5503 23.0928 24.3463C22.1624 22.4324 21.8291 20.2829 22.1362 18.1771C22.3348 16.1488 23.2182 14.2486 24.641 12.7895C26.0656 11.4164 27.9684 10.6512 29.947 10.6557C31.0579 10.6696 32.159 10.8651 33.2068 11.2344C34.5482 11.6632 35.7196 12.5056 36.5531 13.6408C37.3507 14.8067 37.8616 16.1445 38.0442 17.5453C38.1984 18.7771 38.2228 20.0218 38.1171 21.2587C38.0784 21.2824 38.0587 21.3067 38.058 21.3316C38.058 21.3542 38.0728 21.3769 38.1043 21.3985C38.1236 21.3855 38.1409 21.3695 38.1555 21.3513L38.181 21.3247C39.1108 21.1638 40.0022 20.8299 40.8089 20.3405C41.0786 20.1978 41.0688 19.9989 41.0579 19.7883V19.6623V18.4744C41.0579 17.9945 41.0583 17.5111 41.0586 17.0252V17.0246V17.024C41.0598 15.2779 41.061 13.5006 41.0471 11.7462C41.022 11.5759 41.0625 11.4025 41.1603 11.261C41.2694 11.1742 41.4087 11.1349 41.5471 11.1517H41.6131C42.1052 11.1694 42.6209 11.1773 43.1927 11.1773C43.7065 11.1773 44.2587 11.1704 44.9821 11.1556H45.0195C45.1486 11.1369 45.2798 11.1725 45.3817 11.2541C45.4602 11.3632 45.4895 11.5003 45.4624 11.632C45.44 12.008 45.4446 12.3889 45.4494 12.7927L45.4496 12.8052V13.3731C45.5635 13.2418 45.6697 13.1147 45.7729 12.9911L45.7732 12.9908L45.795 12.9647C46.0273 12.6871 46.2468 12.4253 46.484 12.1871C47.4399 11.203 48.7662 10.6671 50.1375 10.7108C50.4998 10.7122 50.8615 10.7388 51.2201 10.7905C51.4731 10.8259 51.4918 10.9588 51.4908 11.1428V14.0257V14.9833C51.2916 14.9613 51.0925 14.9337 50.8988 14.9068L50.8988 14.9068L50.8825 14.9046C50.4763 14.8371 50.0659 14.7983 49.6542 14.7884C49.4434 14.7872 49.2329 14.805 49.0253 14.8416C47.2793 15.1575 46.1316 16.4242 45.7065 18.5059C45.5306 19.3972 45.4458 20.304 45.4535 21.2125V22.9841C45.4535 24.4536 45.4535 25.9722 45.4653 27.4653C45.4876 27.6094 45.4522 27.7565 45.3669 27.8747C45.2643 27.9548 45.1338 27.9903 45.0047 27.9732H44.9535C44.3984 27.9594 43.8246 27.9525 43.2488 27.9525C42.6731 27.9525 42.1032 27.9594 41.5166 27.9722H41.4762C41.3554 27.9861 41.234 27.9507 41.1396 27.8738C41.058 27.7618 41.0247 27.6217 41.0471 27.485C41.062 26.6157 41.0602 25.7614 41.0583 24.864V24.8634L41.0579 24.7055V24.7006V23.6475C40.8408 23.7151 40.6244 23.795 40.4134 23.873L40.4133 23.873L40.4133 23.8731L40.3552 23.8945C39.8646 24.1048 39.3472 24.2459 38.8178 24.3138C37.6539 24.4273 36.5955 25.0371 35.9134 25.987C34.4753 27.5857 32.3916 28.4488 30.2442 28.3354ZM30.4221 14.2837C29.1137 14.2925 27.9007 14.9698 27.2066 16.0789C26.7768 16.8033 26.5179 17.6163 26.4497 18.4558C26.1268 20.216 26.4895 22.0331 27.4635 23.5345C28.1642 24.4456 29.254 24.9725 30.4034 24.9557C31.2161 24.9717 32.0056 24.6843 32.6179 24.1496C30.4544 23.4423 29.0731 21.3264 29.2961 19.0611C29.3101 18.1376 29.6405 17.2469 30.2321 16.5376C30.8866 15.8497 31.7366 15.3793 32.6671 15.1902C32.6361 15.1642 32.6079 15.1392 32.5818 15.116L32.5815 15.1158C32.5562 15.0934 32.5328 15.0727 32.5106 15.0543L32.4931 15.0391L32.4931 15.0391L32.4931 15.0391C32.4316 14.9854 32.3774 14.9382 32.3216 14.8959C31.7731 14.4883 31.1054 14.2731 30.4221 14.2837ZM33.5221 18.0991H33.5871V18.1001C34.1018 18.1001 34.3833 18.4111 34.5034 19.1109C34.5181 19.1953 34.5293 19.2814 34.5395 19.3596L34.5396 19.3598L34.5418 19.3766L34.5467 19.416L34.5447 19.4613C34.5458 19.4705 34.5475 19.4798 34.5491 19.4889C34.5519 19.5041 34.5546 19.519 34.5546 19.5331L34.5388 19.6729C34.527 19.7782 34.5142 19.8855 34.5024 19.9839L34.4896 20.0932C34.4768 20.2144 34.4638 20.3332 34.451 20.4507L34.4505 20.4554L34.4501 20.4589C34.4298 20.6457 34.4097 20.8293 34.3912 21.0144C34.3685 21.2132 34.3046 21.3018 34.1717 21.3018C34.0943 21.2977 34.0181 21.2807 33.9463 21.2516C33.1074 20.9613 32.5608 20.1521 32.6048 19.2654C32.6314 18.5706 32.9827 18.1237 33.5221 18.0991Z" fill="#DD2A3B"/>
</svg>
